<svg width="96" height="96" viewBox="0 0 96 96" fill="none" xmlns="http://www.w3.org/2000/svg">
<path d="M44 2.30935C46.4752 0.880283 49.5248 0.880284 52 2.30935L85.5692 21.6905C88.0444 23.1196 89.5692 25.7606 89.5692 28.6187V67.3811C89.5692 70.2393 88.0444 72.8803 85.5692 74.3093L52 93.6905C49.5248 95.1196 46.4752 95.1196 44 93.6905L10.4308 74.3093C7.95558 72.8803 6.43079 70.2393 6.43079 67.3811V28.6187C6.43079 25.7606 7.95558 23.1196 10.4308 21.6905L44 2.30935Z" fill="white"/>
<path fill-rule="evenodd" clip-rule="evenodd" d="M84.1907 22.9024L51.5701 4.06896C49.3322 2.77689 46.575 2.77689 44.337 4.06896L11.7165 22.9024C9.47853 24.1945 8.09991 26.5824 8.09991 29.1665V66.8335C8.09991 69.4176 9.47853 71.8055 11.7165 73.0975L44.337 91.931C46.575 93.2231 49.3322 93.2231 51.5701 91.931L84.1907 73.0975C86.4286 71.8055 87.8072 69.4176 87.8072 66.8335V29.1665C87.8072 26.5824 86.4286 24.1945 84.1907 22.9024ZM53.1201 1.38436C49.923 -0.461454 45.9841 -0.461455 42.7871 1.38436L10.1665 20.2178C6.96946 22.0637 5 25.4749 5 29.1665V66.8335C5 70.5251 6.96946 73.9363 10.1665 75.7821L42.7871 94.6156C45.9841 96.4614 49.923 96.4614 53.1201 94.6156L85.7406 75.7821C88.9377 73.9363 90.9071 70.5251 90.9071 66.8335V29.1665C90.9071 25.4749 88.9377 22.0637 85.7406 20.2178L53.1201 1.38436Z" fill="#3770A0"/>
<path d="M47.7142 24.0004C45.735 24.0095 43.8448 24.1764 42.1817 24.4675C37.2823 25.3236 36.3928 27.1155 36.3928 30.4201V34.7844H47.9706V36.2391H36.3928H32.0478C28.683 36.2391 25.7366 38.2395 24.815 42.0449C23.752 46.4067 23.7049 49.1286 24.815 53.683C25.638 57.0732 27.6034 59.4887 30.9683 59.4887H34.949V54.2569C34.949 50.4772 38.2554 47.1432 42.1817 47.1432H53.746C56.9651 47.1432 59.5349 44.5217 59.5349 41.3242V30.4201C59.5349 27.3167 56.8879 24.9855 53.746 24.4675C51.7571 24.1401 49.6934 23.9913 47.7142 24.0004ZM41.453 27.5105C42.6489 27.5105 43.6255 28.4922 43.6255 29.6993C43.6255 30.9022 42.6489 31.8748 41.453 31.8748C40.2528 31.8748 39.2805 30.9022 39.2805 29.6993C39.2805 28.4922 40.2528 27.5105 41.453 27.5105Z" fill="url(#paint0_linear)"/>
<path d="M60.9787 36.2393V41.3243C60.9787 45.2666 57.5995 48.5848 53.746 48.5848H42.1817C39.0141 48.5848 36.3928 51.2662 36.3928 54.4038V65.3079C36.3928 68.4113 39.1212 70.2367 42.1817 71.127C45.8466 72.1929 49.361 72.3855 53.746 71.127C56.6607 70.2923 59.5349 68.6125 59.5349 65.3079V60.9436H47.9706V59.4889H59.5349H65.3237C68.6886 59.4889 69.9424 57.1675 71.1126 53.6831C72.3214 50.0961 72.27 46.6465 71.1126 42.045C70.2811 38.7319 68.6929 36.2393 65.3237 36.2393H60.9787ZM54.4746 63.8532C55.6748 63.8532 56.6472 64.8258 56.6472 66.0287C56.6472 67.2358 55.6748 68.2175 54.4746 68.2175C53.2787 68.2175 52.3021 67.2358 52.3021 66.0287C52.3021 64.8258 53.2787 63.8532 54.4746 63.8532Z" fill="url(#paint1_linear)"/>
<defs>
<linearGradient id="paint0_linear" x1="24" y1="24" x2="50.4499" y2="46.7879" gradientUnits="userSpaceOnUse">
<stop stop-color="#5A9FD4"/>
<stop offset="1" stop-color="#306998"/>
</linearGradient>
<linearGradient id="paint1_linear" x1="54.1964" y1="65.6617" x2="44.7574" y2="52.2888" gradientUnits="userSpaceOnUse">
<stop stop-color="#FFD43B"/>
<stop offset="1" stop-color="#FFE873"/>
</linearGradient>
</defs>
</svg>
